<?xml version="1.0" standalone="no"?><!DOCTYPE svg PUBLIC "-//W3C//DTD SVG 1.1//EN" "http://www.w3.org/Graphics/SVG/1.1/DTD/svg11.dtd"><svg t="1717599774553" class="icon" viewBox="0 0 1024 1024" version="1.1" xmlns="http://www.w3.org/2000/svg" p-id="13193" xmlns:xlink="http://www.w3.org/1999/xlink" width="200" height="200"><path d="M551.458133 934.7072a51.336533 51.336533 0 1 0-72.635733 72.4992 51.336533 51.336533 0 1 0 72.635733-72.635733zM325.905067 18.705067a51.336533 51.336533 0 0 0-72.635734 72.635733 51.336533 51.336533 0 0 0 72.635734-72.635733zM776.465067 20.0704a51.336533 51.336533 0 1 0-72.772267 72.4992 51.336533 51.336533 0 0 0 72.635733-72.635733zM776.6016 709.973333a51.336533 51.336533 0 0 0-72.772267 72.4992A51.336533 51.336533 0 0 0 776.6016 709.973333zM324.8128 709.973333a51.336533 51.336533 0 1 0-72.772267 72.4992A51.473067 51.473067 0 0 0 324.8128 709.973333z" fill="#2c2c2c" p-id="13194"></path><path d="M791.893333 52.4288L736.324267 5.3248l-450.56-1.774933L238.3872 54.613333l-1.6384 694.135467 13.653333 32.3584 228.420267 227.7376 74.1376-3.140267 223.6416-223.505066L791.893333 740.010667zM583.406933 687.581867a96.529067 96.529067 0 1 1-136.533333 0 96.529067 96.529067 0 0 1 136.533333 0z" fill="#2c2c2c" p-id="13195"></path></svg>