<?xml version="1.0" standalone="no"?><!DOCTYPE svg PUBLIC "-//W3C//DTD SVG 1.1//EN" "http://www.w3.org/Graphics/SVG/1.1/DTD/svg11.dtd"><svg t="1717320599721" class="icon" viewBox="0 0 1024 1024" version="1.1" xmlns="http://www.w3.org/2000/svg" p-id="1529" xmlns:xlink="http://www.w3.org/1999/xlink" width="200" height="200"><path d="M85.333333 725.333333V128C85.333333 57.301333 142.634667 0 213.333333 0h597.333334c70.698667 0 128 57.301333 128 128v597.333333c0 70.698667-57.301333 128-128 128H640v-85.333333h170.666667a42.666667 42.666667 0 0 0 42.666666-42.666667V128a42.666667 42.666667 0 0 0-42.666666-42.666667H213.333333a42.666667 42.666667 0 0 0-42.666666 42.666667v597.333333a42.666667 42.666667 0 0 0 42.666666 42.666667h170.666667v85.333333H213.333333c-70.688 0-128-57.301333-128-128z m225.834667-225.834666a42.666667 42.666667 0 0 0 60.330667 0L469.333333 401.674667V981.333333a42.666667 42.666667 0 0 0 85.333334 0V401.674667l97.834666 97.824a42.666667 42.666667 0 1 0 61.376-59.285334c-0.330667-0.362667-0.682667-0.704-1.045333-1.056l-170.666667-170.666666a42.666667 42.666667 0 0 0-60.330666 0l-170.666667 170.666666a42.634667 42.634667 0 0 0-0.032 60.298667l0.032 0.042667z" p-id="1530"></path></svg>